<?xml version="1.0" standalone="no"?>
<!DOCTYPE svg PUBLIC "-//W3C//DTD SVG 20010904//EN"
 "http://www.w3.org/TR/2001/REC-SVG-20010904/DTD/svg10.dtd">
<svg version="1.0" xmlns="http://www.w3.org/2000/svg"
 width="2048.000000pt" height="2048.000000pt" viewBox="0 0 2048.000000 2048.000000"
 preserveAspectRatio="xMidYMid meet">

<g transform="translate(0.000000,2048.000000) scale(0.100000,-0.100000)"
fill="#000000" stroke="none">
<path d="M957 14463 c-4 -384 -7 -1148 -7 -1699 l0 -1001 122 -6 c66 -4 180
-7 253 -7 l132 0 6 353 c4 193 7 882 7 1529 l0 1177 -92 69 c-107 79 -385 271
-403 278 -9 4 -13 -151 -18 -693z"/>
<path d="M5146 12518 c-3 -1399 -9 -2931 -12 -3405 -4 -529 -3 -863 3 -863 5
0 25 12 44 26 66 49 315 210 384 249 39 21 73 43 77 49 4 6 8 544 9 1196 0
652 4 2033 8 3070 5 1182 4 1890 -2 1897 -14 19 -482 323 -497 323 -4 0 -10
-1144 -14 -2542z"/>
<path d="M16755 13946 c-33 -23 -130 -91 -215 -151 -85 -60 -178 -127 -207
-150 -28 -22 -75 -57 -105 -78 -91 -65 -99 -74 -128 -154 -15 -43 -86 -242
-158 -443 -72 -201 -197 -547 -277 -770 -80 -223 -157 -434 -169 -470 -13 -36
-72 -200 -131 -365 -59 -165 -118 -329 -131 -365 -13 -36 -89 -247 -169 -470
-80 -223 -205 -569 -276 -770 -72 -201 -146 -405 -164 -455 -18 -49 -91 -254
-163 -455 -72 -201 -187 -521 -256 -712 -68 -191 -131 -371 -140 -400 -17 -58
-166 -356 -277 -556 -627 -1118 -1404 -1958 -2389 -2584 -167 -106 -354 -210
-586 -326 -824 -412 -1789 -665 -2874 -751 -370 -30 -1135 -38 -1595 -16
l-100 4 155 -23 c268 -41 475 -51 1020 -51 556 1 765 10 1170 55 726 81 1334
223 2045 479 712 255 1366 626 1953 1108 677 556 1272 1289 1739 2143 129 236
240 459 252 505 5 22 77 229 161 460 83 231 218 607 300 835 82 228 217 604
300 835 83 231 210 584 282 785 71 201 145 406 163 455 18 50 89 248 158 440
69 193 144 400 167 460 22 61 51 142 64 180 21 63 126 357 211 590 18 50 91
254 163 455 72 201 163 453 201 560 39 107 70 198 69 202 -2 4 -30 -12 -63
-36z"/>
<path d="M18778 13860 c287 -67 530 -287 693 -625 69 -144 111 -269 144 -430
42 -211 48 -283 42 -546 l-5 -245 -32 -80 c-46 -111 -157 -397 -234 -599 -30
-78 -218 -564 -262 -677 -19 -49 -49 -127 -68 -175 -19 -49 -80 -207 -136
-353 -56 -146 -107 -273 -112 -284 -9 -17 -7 -18 17 -12 74 19 601 279 613
303 5 10 128 324 272 698 323 835 309 798 355 920 20 55 48 120 60 145 30 59
32 76 46 268 44 637 -176 1244 -554 1528 -166 125 -380 187 -572 166 -45 -5
-93 -5 -110 0 -16 4 -77 10 -135 13 l-105 5 83 -20z"/>
<path d="M8540 13850 c315 -56 580 -166 810 -336 500 -370 862 -947 1075
-1713 19 -68 37 -126 39 -129 3 -3 13 4 23 15 20 22 204 180 268 230 22 16 59
40 82 51 l41 21 -19 63 c-35 113 -131 340 -209 493 -355 699 -901 1160 -1510
1276 -84 16 -161 22 -285 24 -93 2 -215 5 -270 9 -83 4 -91 4 -45 -4z"/>
<path d="M8085 13500 c-629 -132 -1191 -727 -1492 -1580 -71 -199 -161 -535
-148 -548 1 -2 116 -6 254 -9 210 -5 251 -4 254 8 3 8 22 84 42 169 205 839
671 1527 1232 1816 65 34 141 67 168 74 28 7 54 16 59 21 14 13 -209 71 -263
68 -9 0 -56 -9 -106 -19z"/>
<path d="M18410 13493 c-195 -81 -400 -342 -507 -648 -67 -188 -99 -354 -109
-561 l-7 -129 46 -130 c41 -115 123 -343 450 -1254 l84 -234 13 39 c7 21 16
44 20 49 4 6 13 28 20 50 7 22 21 58 31 80 10 22 30 72 45 110 15 39 35 88 44
110 31 70 90 227 90 239 0 12 -84 250 -250 706 -39 107 -73 211 -76 230 -8 53
13 292 36 410 38 187 102 368 179 508 46 83 118 188 150 216 11 11 21 26 21
33 0 19 -103 116 -155 148 -65 39 -86 44 -125 28z"/>
<path d="M11985 13113 c3 -15 26 -78 51 -140 24 -62 65 -166 90 -230 25 -65
70 -179 99 -253 72 -184 136 -346 180 -460 20 -52 58 -151 85 -220 27 -69 74
-188 104 -265 30 -77 74 -192 99 -255 47 -120 122 -312 162 -415 12 -33 48
-123 78 -200 67 -170 115 -293 174 -445 24 -63 59 -153 78 -200 18 -47 49
-127 69 -177 20 -51 51 -132 70 -180 32 -82 57 -146 173 -443 24 -63 60 -155
80 -205 107 -272 123 -316 124 -327 1 -16 9 4 49 112 17 47 35 94 40 105 10
22 58 151 123 335 l41 115 -59 150 c-32 83 -85 218 -117 300 -33 83 -68 173
-78 200 -10 28 -57 149 -105 270 -47 121 -124 317 -170 435 -84 217 -141 365
-220 565 -48 121 -111 282 -181 463 -97 250 -146 375 -227 582 -46 118 -100
256 -119 305 l-34 90 -99 68 c-55 38 -120 79 -145 93 -25 13 -72 42 -105 64
-33 21 -96 60 -140 85 -44 25 -102 59 -129 76 l-48 30 7 -28z"/>
<path d="M946 10708 c-4 -381 -6 -1133 -4 -1671 l3 -978 85 71 c138 115 260
224 343 308 l78 79 7 1409 7 1409 1503 3 1502 2 0 30 0 30 -1759 0 -1759 0 -6
-692z"/>
<path d="M6458 11003 c-91 -4 -83 12 -98 -203 -56 -816 102 -1615 443 -2235
267 -484 639 -828 1049 -968 96 -33 117 -37 210 -37 90 0 211 18 240 36 5 3
-24 21 -65 38 -244 107 -510 328 -708 592 -404 538 -640 1287 -665 2114 -6
186 6 500 23 582 l6 28 1425 0 1426 -1 30 31 31 30 -1635 -2 c-899 -1 -1670
-4 -1712 -5z"/>
<path d="M10670 9446 c-186 -93 -366 -189 -383 -205 -12 -12 -20 -44 -27 -106
-27 -243 -76 -404 -200 -660 -93 -191 -146 -278 -264 -430 -291 -375 -650
-643 -1022 -765 -153 -50 -264 -70 -432 -77 -73 -3 -129 -10 -125 -14 20 -20
255 -49 396 -49 223 0 358 27 687 136 200 67 450 208 614 346 205 173 408 406
532 609 232 380 334 709 335 1070 0 147 -5 190 -20 188 -3 0 -44 -19 -91 -43z"/>
<path d="M18637 8600 c223 -58 399 -233 469 -466 22 -71 25 -274 5 -344 -7
-25 -31 -83 -53 -130 -33 -69 -57 -101 -127 -171 -70 -70 -102 -94 -173 -128
-47 -23 -117 -48 -154 -55 -77 -14 -76 -14 21 -47 58 -20 90 -24 190 -23 126
0 184 13 397 91 184 67 341 229 399 413 30 94 37 255 15 354 -54 242 -254 444
-496 501 -65 15 -219 18 -275 6 -16 -4 -52 -1 -80 6 -27 7 -86 13 -130 12
l-80 0 72 -19z"/>
<path d="M18231 8192 c-90 -89 -121 -203 -90 -325 12 -49 73 -142 111 -170 26
-20 26 -20 61 2 132 81 184 260 119 404 -27 59 -106 147 -133 147 -6 0 -37
-26 -68 -58z"/>
<path d="M5005 7060 c17 -4 77 -18 135 -30 438 -91 656 -407 612 -887 -14
-154 -62 -372 -99 -445 -112 -225 -288 -389 -453 -423 l-54 -11 79 -30 c72
-26 92 -29 200 -29 92 1 131 5 165 19 25 10 74 26 110 35 180 49 316 165 433
370 92 161 143 411 134 661 -6 166 -20 227 -79 350 -73 152 -226 282 -404 344
-131 46 -397 82 -460 63 -25 -7 -71 -6 -176 6 -152 18 -192 20 -143 7z"/>
<path d="M4690 6696 c-283 -83 -465 -280 -536 -583 -62 -261 -34 -779 57
-1063 185 -576 702 -955 1527 -1119 199 -40 186 -38 452 -60 222 -19 544 -35
490 -25 -14 3 -99 16 -190 30 -514 79 -913 220 -1215 428 -127 88 -300 262
-379 380 -60 91 -132 234 -160 317 -22 68 -66 240 -66 261 0 11 -7 18 -19 18
-30 0 -180 49 -236 78 -99 50 -216 133 -240 173 -48 75 -23 184 51 230 29 18
56 23 123 26 131 6 137 5 183 -17 28 -13 52 -18 70 -14 25 5 28 10 28 49 0
173 62 430 135 553 42 72 140 181 192 213 l34 21 -20 22 c-31 33 -141 85 -191
91 -25 2 -65 -2 -90 -9z"/>
<path d="M4758 5763 c-10 -2 -18 -7 -18 -10 0 -10 114 -93 129 -93 15 0 53 49
48 63 -12 33 -101 55 -159 40z"/>
</g>
</svg>
